<svg width="512" height="110" viewBox="0 0 512 110" xmlns="http://www.w3.org/2000/svg" preserveAspectRatio="xMidYMid"><path d="m25.091 73.128 20.143-11.302.337-.986-.337-.544h-.985l-3.37-.207-11.51-.311-9.981-.415-9.67-.519-2.437-.518L5 55.318l.233-1.503 2.048-1.374 2.93.26 6.48.44 9.722.674 7.052.415 10.447 1.088h1.66l.232-.674-.57-.414-.44-.415-10.06-6.818-10.887-7.207-5.703-4.148-3.086-2.1-1.555-1.97-.674-4.303 2.8-3.085 3.759.26.96.258 3.81 2.93 8.14 6.3 10.629 7.828 1.555 1.296.622-.44.078-.312-.7-1.166-5.78-10.448-6.17-10.628-2.749-4.408-.725-2.644c-.26-1.089-.441-1.996-.441-3.11l3.189-4.33L33.568 5l4.252.57 1.789 1.556 2.644 6.04 4.277 9.514 6.637 12.936 1.944 3.837 1.037 3.552.39 1.089h.673v-.623l.544-7.284 1.011-8.944.986-11.51.337-3.24 1.607-3.89 3.188-2.1 2.49 1.193 2.047 2.93-.285 1.892-1.218 7.907-2.385 12.392-1.556 8.295h.907l1.038-1.037 4.2-5.573 7.05-8.815 3.112-3.5 3.629-3.862 2.333-1.84h4.407l3.24 4.821-1.451 4.978-4.537 5.755-3.759 4.873-5.392 7.26-3.37 5.806.31.467.805-.078 12.184-2.592 6.585-1.193 7.854-1.348 3.552 1.66.389 1.684-1.4 3.448-8.4 2.074-9.85 1.97-14.673 3.474-.182.13.208.26 6.61.621 2.826.156h6.922l12.884.959 3.37 2.23 2.022 2.722-.337 2.073-5.185 2.645-7-1.66-16.331-3.888-5.6-1.4h-.778v.467l4.667 4.562 8.554 7.726 10.707 9.955.544 2.462-1.373 1.944-1.452-.207-9.41-7.077-3.63-3.189-8.218-6.921h-.544v.725l1.892 2.774L83.913 92.65l.518 4.615-.725 1.504-2.593.907-2.852-.519-5.859-8.218-6.04-9.255-4.874-8.295-.596.337-2.877 30.979-1.348 1.581-3.111 1.193-2.592-1.97-1.375-3.19 1.374-6.299 1.66-8.217 1.347-6.534 1.219-8.114.726-2.696-.052-.181-.596.077-6.118 8.4-9.307 12.573-7.362 7.881-1.763.7-3.06-1.582.286-2.825 1.71-2.515 10.189-12.962 6.144-8.036 3.966-4.64-.026-.675h-.233L22.628 84.25l-4.822.622-2.074-1.944.26-3.189.984-1.037 8.14-5.6z" fill="#D97757"/><path d="M125.039 67.139h-4.834V43.936a23.4 23.4 0 0 1 .848-5.684 15.42 15.42 0 0 1 5.705-8.389 12.4 12.4 0 0 1 2.266-1.35q1.767-.798 3.535-.798a7.4 7.4 0 0 1 3.608.857q2.54 1.393 3.804 5.051a16.5 16.5 0 0 1 .717 3.283 22 22 0 0 1 .142 2.518v21.269a16 16 0 0 1-.109 1.94q-.399 3.209-2.254 3.969-1.142.407-3.521.505a40 40 0 0 1-1.635.032v2.685h23.095a5 5 0 0 0-.071-.901q-.082-.459-.257-.794a1.6 1.6 0 0 0-1.283-.883 3 3 0 0 0-.353-.065q-.189-.025-.408-.035a7 7 0 0 0-.313-.007h-4.834v-27.5q1.718-7.842 7.627-10.957a12 12 0 0 1 2-.753 8.7 8.7 0 0 1 2.297-.322 8.1 8.1 0 0 1 3.655.801q1.793.897 3.018 2.797a12 12 0 0 1 1.061 2.096 14.8 14.8 0 0 1 .897 3.454 19 19 0 0 1 .177 2.669v21.269a16 16 0 0 1-.109 1.94q-.399 3.209-2.254 3.969-1.142.407-3.521.505a40 40 0 0 1-1.635.032v2.685h23.74a5 5 0 0 0-.072-.901q-.082-.459-.256-.794a1.6 1.6 0 0 0-1.283-.883 3 3 0 0 0-.353-.065q-.189-.025-.408-.035a7 7 0 0 0-.314-.007h-5.478V40.498a26.5 26.5 0 0 0-.57-5.697q-.77-3.497-2.581-6.029a13.7 13.7 0 0 0-4.046-3.743 13.33 13.33 0 0 0-6.983-1.933 14.39 14.39 0 0 0-11.29 5.206 21 21 0 0 0-1.815 2.421q-1.289 1.933-2.149 4.082a20.3 20.3 0 0 0-1.607-4.613 12.44 12.44 0 0 0-6.879-6.344 10.9 10.9 0 0 0-3.975-.752 15.17 15.17 0 0 0-11.563 5.107 21 21 0 0 0-1.22 1.445q-1.826 2.364-2.9 5.264l-.43-10.742h-15.576v2.685h8.056v33.838a13 13 0 0 1-.133 1.972q-.478 3.181-2.66 3.937a7.5 7.5 0 0 1-1.033.253q-1.577.284-4.23.284v2.685h23.633q0-2.256-1.612-2.578a5.5 5.5 0 0 0-1.074-.107ZM46.621 5.371v2.793h9.131v48.125L14.932 5.371H0v2.793h8.594v58.867H0v2.793h22.021a5 5 0 0 0-.082-.936q-.1-.509-.321-.874a1.86 1.86 0 0 0-1.315-.875 5.5 5.5 0 0 0-1.074-.108h-6.338V17.295l42.216 53.066 4.942-1.074V8.164h8.594V5.371zM302.93 67.139h-5.371V24.17h-16.866v2.685h8.809v23.204a21.8 21.8 0 0 1-.661 5.539 14.43 14.43 0 0 1-6.107 8.64 12.3 12.3 0 0 1-3.012 1.515 10.1 10.1 0 0 1-3.218.526 12.6 12.6 0 0 1-4.049-.599q-3.915-1.321-5.442-5.547a15.4 15.4 0 0 1-.714-2.877 21 21 0 0 1-.185-1.964 26 26 0 0 1-.03-1.259V24.17h-16.328v2.685h8.271v25.567q.096 16.376 12.231 18.238a22 22 0 0 0 3.131.238 15.86 15.86 0 0 0 12.05-5.197 21 21 0 0 0 1.163-1.355q1.933-2.471 3.115-5.479l.752 10.957h15.146a5 5 0 0 0-.071-.901q-.082-.459-.257-.794a1.6 1.6 0 0 0-1.283-.883 3 3 0 0 0-.353-.065q-.189-.025-.408-.035a7 7 0 0 0-.313-.007Zm-95.498-31.582V0h-16.114v2.686h8.057v58.007a13 13 0 0 1-.134 1.972q-.477 3.181-2.659 3.937a7.5 7.5 0 0 1-1.034.253q-1.576.284-4.23.284v2.685h13.536l.966-7.09a16.4 16.4 0 0 0 11.43 7.742 23 23 0 0 0 2.535.315 14 14 0 0 0 .983.09 12 12 0 0 0 .628.017 20.53 20.53 0 0 0 15.185-6.335 26 26 0 0 0 .714-.754 24.04 24.04 0 0 0 5.674-12.593 33 33 0 0 0 .342-4.81 35 35 0 0 0-.762-7.514q-1.454-6.592-5.684-10.962a16.17 16.17 0 0 0-11.703-4.833l-.221-.001a20.1 20.1 0 0 0-7.103 1.188q-5.287 1.981-8.449 7.268a23 23 0 0 0-1.098 2.071q-.537.967-.859 1.934Zm137.929-13.106v13.428h-2.793a13 13 0 0 0-.7-4.155q-1.487-4.124-6.112-5.334a17 17 0 0 0-4.145-.501 21 21 0 0 0-3.427.257q-5.081.846-6.563 4.469-.537 1.289-.537 2.686a6.48 6.48 0 0 0 1.691 4.3q.885 1.032 2.232 1.967a20 20 0 0 0 2.737 1.575 28 28 0 0 0 .86.409q1.415.649 3.75 1.585l.117.047a74 74 0 0 1 3.988 1.752q3.765 1.799 5.966 3.511a12.7 12.7 0 0 1 1.647 1.504q3.116 3.438 3.116 8.164a12.4 12.4 0 0 1-.995 5.086q-1.369 3.068-4.619 4.955a18 18 0 0 1-3.625 1.561q-3.545 1.181-7.734 1.181a27.4 27.4 0 0 1-7.224-1.02 22.5 22.5 0 0 1-6.204-2.847q0 1.916-.657 2.72a1.5 1.5 0 0 1-.739.503 7 7 0 0 1-.605.073q-.312.026-.662.032l-.237.002V54.033h3.008a23.8 23.8 0 0 0 .606 5.235q1.778 7.315 8.727 8.501a17 17 0 0 0 2.698.229q4.248 0 6.909-1.482a7.9 7.9 0 0 0 3.081-3.03 6.76 6.76 0 0 0 .967-3.545 6.33 6.33 0 0 0-1.588-4.129q-1.625-1.954-4.915-3.581l-.05-.024a26 26 0 0 0-.812-.416q-1.39-.685-3.807-1.732-6.776-2.81-10.056-5.366a13 13 0 0 1-1.653-1.509q-3.115-3.545-3.115-8.272 0-5.783 4.97-8.885a17.3 17.3 0 0 1 3.194-1.535q3.76-1.396 8.164-1.396a28 28 0 0 1 6.028.617 21.3 21.3 0 0 1 6.218 2.391 10 10 0 0 1 .062-1.155q.243-2.048 1.442-2.39a8 8 0 0 1 .847-.093 10 10 0 0 1 .549-.015Zm-250.4 44.688H89.59V24.17H72.939v2.685h8.594v33.838a11 11 0 0 1-.183 2.104q-.597 3.09-3.147 3.912-1.232.329-3.658.406a51 51 0 0 1-1.606.024v2.685h24.707a5 5 0 0 0-.071-.901q-.082-.459-.257-.794a1.6 1.6 0 0 0-1.283-.883 5.5 5.5 0 0 0-1.074-.107Zm132.497-38.172a10.66 10.66 0 0 0-5.847-1.574 11.57 11.57 0 0 0-7.841 3.007 16.9 16.9 0 0 0-4.072 5.673q-1.274 2.81-1.864 6.384a41.5 41.5 0 0 0-.51 6.742 37 37 0 0 0 .354 5.232 26.7 26.7 0 0 0 1.258 5.188 18.4 18.4 0 0 0 1.596 3.213q3.415 5.381 9.79 5.381l.291-.003a11.7 11.7 0 0 0 5.403-1.394 13 13 0 0 0 .742-.443q5.536-3.561 6.943-12.502a43.4 43.4 0 0 0 .479-6.713 41 41 0 0 0-.236-4.497 30 30 0 0 0-.839-4.526 28 28 0 0 0-.19-.719q-1.687-6.051-5.457-8.449ZM90.879 8.486a6.6 6.6 0 0 0-.376-2.283q-.644-1.75-2.393-2.787a8 8 0 0 0-.561-.301q-1.289-.537-2.471-.537a6.4 6.4 0 0 0-2.331.406q-1.983.776-3.04 3.032a5.9 5.9 0 0 0-.537 2.47q0 3.975 3.545 5.479 1.181.43 2.363.43a6.3 6.3 0 0 0 2.225-.371q1.68-.627 2.661-2.319a7 7 0 0 0 .378-.748 5.9 5.9 0 0 0 .537-2.471Z" vector-effect="non-scaling-stroke" transform="translate(130 15)" stroke-linecap="round" fill-rule="evenodd" font-size="12" stroke="#303030" stroke-width=".945" fill="#303030" style="stroke:#303030;stroke-width:.25mm;fill:#303030"/></svg>
